<svg xmlns="http://www.w3.org/2000/svg" width="349.054" height="182.414" viewBox="0 0 349.054 182.414">
  <g id="Rudi_Logo-04" transform="translate(-29.775 -18.72)">
    <path id="Path_1" data-name="Path 1" d="M29.782,122.4a57.277,57.277,0,0,1,17.4-42.042A57.291,57.291,0,0,1,89.228,62.942V88.429A33.93,33.93,0,0,0,55.255,122.4v59.445H29.782Z" transform="translate(0 19.272)" fill="#edf2f4"/>
    <path id="Path_2" data-name="Path 2" d="M77.1,122.4V62.94h25.487V122.4a33.973,33.973,0,1,0,67.946-.014V62.94H196V122.4a59.452,59.452,0,0,1-118.9-.014Z" transform="translate(20.628 19.274)" fill="#edf2f4"/>
    <path id="Path_3" data-name="Path 3" d="M280.037,73.077V181.859H254.55V62.94Z" transform="translate(97.974 19.274)" fill="#2b2e42"/>
    <path id="Path_4" data-name="Path 4" d="M319.435,47.653,258.855,18.72l.373,27.77V92.754a59.689,59.689,0,0,0-75.943,6.878,57.277,57.277,0,0,0-17.4,42.042,59.452,59.452,0,1,0,118.9-.014v-83.5l34.719,15.909Zm-70.1,118.058a33.973,33.973,0,1,1,5.383-41,33.973,33.973,0,0,1-5.383,41Z" transform="translate(59.323 0)" fill="#2b2e42"/>
  </g>
</svg>
